<?xml version="1.0" encoding="utf-8"?>
<!-- Generator: Adobe Illustrator 23.0.3, SVG Export Plug-In . SVG Version: 6.00 Build 0)  -->
<svg version="1.1" xmlns="http://www.w3.org/2000/svg" xmlns:xlink="http://www.w3.org/1999/xlink" x="0px" y="0px"
	 viewBox="0 0 512 512" style="enable-background:new 0 0 512 512;" xml:space="preserve">
<style type="text/css">
	.st0{fill:#2B1043;}
	.st1{fill:#3F1E55;}
	.st2{fill:#5B3D78;}
	.st3{fill:#E2C444;}
	.st4{fill:#0071BC;}
	.st5{fill:#1A1A1A;}
	.st6{fill:#FFFFFF;}
</style>
<g id="Background">
	<circle class="st0" cx="256" cy="256" r="256"/>
</g>
<g id="Medal">
	<path class="st1" d="M289.7,278.9l-67.4-45.9c-4.2-2.9-5.3-8.6-2.4-12.8L353.5,23.8c2.9-4.2,8.6-5.3,12.8-2.4l67.4,45.9
		c4.2,2.9,5.3,8.6,2.4,12.8L302.5,276.5C299.7,280.7,293.9,281.8,289.7,278.9z"/>
	<path class="st2" d="M209.6,276.7L75.7,79.9c-2.8-4.1-1.7-9.7,2.4-12.5l67.8-46.1c4.1-2.8,9.7-1.7,12.5,2.4l133.9,196.8
		c2.8,4.1,1.7,9.7-2.4,12.5L222.1,279C218,281.9,212.4,280.8,209.6,276.7z"/>
	<circle class="st3" cx="256" cy="336" r="144"/>
</g>
<g id="WoWs_Logo">
	<path class="st4" d="M290.8,256h-69.7L192,274.2v115.3l63.8,40.6l64.2-40.1V274.2L290.8,256z M282.4,344.7v22.5l-12.8,9l-0.4-46.4
		h7.2l17.6-12.2v-13.7l-23.9,0.2l0-9.3l12.7-6.6v-17H230l0.1,15.8l13.1,7.8v9.3H218V317l18,12.2h6.8v46.5l-11.6-8.5v-23.5
		l-26.4-15.3v54.4l51.4,32.1l51.8-32.6v-54.8L282.4,344.7z"/>
	<path class="st5" d="M289.3,264.9h-66.7l-22.4,14.8v106.4l55.6,35.1l56-36.3v-106L289.3,264.9z M307.8,382.4L256,415l-51.4-32.1
		v-54.4l26.4,15.3v23.5l11.6,8.5v-46.5h-6.8l-18-12.2v-13.1H243v-9.3l-13.1-7.8l-0.1-15.8h52.8v17l-12.7,6.6l0,9.3l23.9-0.2v13.7
		l-17.6,12.2H269l0.4,46.4l12.8-9v-22.5l25.6-17.1V382.4z"/>
	<polygon class="st6" points="307.6,327.6 307.6,382.4 255.8,415 204.4,382.9 204.4,328.5 230.8,343.8 230.8,367.3 242.4,375.7 
		242.4,329.3 235.6,329.3 217.6,317 217.6,303.9 242.8,303.9 242.8,294.7 229.7,286.8 229.6,271 282.4,271 282.4,288 269.7,294.6 
		269.7,303.9 293.6,303.7 293.6,317.5 276,329.7 268.8,329.7 269.2,376.1 282,367.2 282,344.7 	"/>
</g>
</svg>
