<svg xmlns="http://www.w3.org/2000/svg" viewBox="0 0 509.06 509.06"><defs><style>.cls-1{fill:#0b0035;stroke-width:5px;}.cls-1,.cls-11,.cls-12,.cls-13,.cls-14,.cls-2,.cls-4,.cls-7,.cls-8,.cls-9{stroke:#491049;}.cls-1,.cls-12,.cls-14,.cls-4,.cls-8{stroke-miterlimit:10;}.cls-2{fill:#8ebcf7;}.cls-11,.cls-13,.cls-2,.cls-9{stroke-linejoin:round;}.cls-3{fill:#491049;}.cls-4{fill:#57555a;}.cls-5{font-size:62.58px;font-family:KozGoPr6N-Regular-90ms-RKSJ-H, Kozuka Gothic Pr6N;letter-spacing:-0.02em;}.cls-10,.cls-5{fill:#fff;}.cls-6{letter-spacing:-0.03em;}.cls-7{fill:none;stroke-linejoin:bevel;}.cls-11,.cls-8{fill:#b45eb5;}.cls-9{fill:#fdeded;}.cls-12,.cls-13,.cls-14{fill:#f1f1f1;}.cls-14{stroke-linecap:round;}</style></defs><title>Logo</title><g id="Layer_2" data-name="Layer 2"><g id="Rem"><circle class="cls-1" cx="254.53" cy="254.53" r="252.03"/><g id="Hair"><path id="Base" class="cls-2" d="M138.82,338.14l-23,.18c-7.07-11.06-32.18-52.63-32.1-113.15,0,0,2.36-46.37,16.07-79.91,10.73-26.25,17.59-34.89,21-39.24s7.09-9.84,7.09-9.84S170,38.89,251,41.43c52.29,1.63,81.94,9.43,105.85,29.22,39.79,32.91,56.5,69.38,64.9,95.58,4.12,12.67,4.12,23.33,2.77,36.33l-2.44,19.17s-3.77,24.5-8.61,37.53c-3.74,10.07-19.77,43.78-32.25,57.3s-28,23.83-48,35.14H289.38"/><path class="cls-3" d="M363.64,192.68c-.06-1.64-2.43-2.73-2.37-1.08.36,10.31,2.43,21.29,2,31.6-.51,11-3.76,24.64-5.84,35.44-.31,1.61,1.32-.22,1.63-1.83,1.93-10.05,4.24-20.89,5-31.1C364.91,214.46,364,204,363.64,192.68Z"/><path class="cls-3" d="M131,300.56l-2.69-3.1c0-.15-3.06-3.23-3.17-3.37-7-9-9.77-16.41-13.2-27.2-1.82-5.72-3.79-11.61-5.13-17.58v-.07a1.17,1.17,0,0,0-.16-.64c-.91-4.2-1.88-10.95-2-12.54,0-.72-.49-4.86-.49-4.86a281.93,281.93,0,0,1,1-49.31c1.94-19.33,9.75-37.53,15.88-55.83.52-1.56-1.23.86-1.75,2.42-5.84,17.43-12.75,31.9-15,50.25a268.9,268.9,0,0,0-1.31,55.7l.5,4.5c.52,3.8,1,6.53,1.93,10.75A247.44,247.44,0,0,0,113,295c3.86,14.27,6.92,29.41,13.4,42.72.71,1.48,2.92.19,2.2-1.29-6.34-13-10.8-28-14.59-42a296.91,296.91,0,0,1-7.33-40.71c1,3.22,2,7.91,3.07,11,3.34,10,8.3,21.72,14.72,30.15,0,.23,2.75,2.95,2.93,3.17l4.93,5.58C133.66,304.63,132.29,301.5,131,300.56Z"/><path class="cls-3" d="M153.46,285.71c-2.39-9.6-3.27-20.08-3.85-29.95-.09-1.63-.74.61-.64,2.25.59,10.1.09,15.23,2.53,25.05C151.9,284.65,153.86,287.31,153.46,285.71Z"/><path class="cls-3" d="M177.1,273.93c-8.59-30.67-4.41-62.4-.51-93.5.2-1.63-1.31,2.08-1.51,3.69-3.93,31.34-8.21,56.45.44,87.33C176,273,177.54,275.52,177.1,273.93Z"/><path class="cls-3" d="M207.67,289.73c-2-8.87-6.08-19.27-3.94-28.34.37-1.6-.29-1.71-.67-.11-2.24,9.55.87,19.55,2.94,28.91C206.36,291.79,208,291.33,207.67,289.73Z"/><path class="cls-3" d="M228.06,107.48c-9.34,31-18.32,61.41-21.08,93.79-.14,1.63.93,1.76,1.06.13,2.75-32.14,11.79-63.06,21.06-93.81C229.57,106,228.53,105.9,228.06,107.48Z"/><path class="cls-3" d="M347.11,238.06c-1.73,18.59-4.84,35.93-11.61,53.42-.6,1.53.79,1.46,1.38-.06,6.85-17.7,9.66-36.29,11.42-55.1C348.45,234.69,347.27,236.43,347.11,238.06Z"/><path class="cls-3" d="M324.64,199.81c-2.13-14.67-3.24-26.79-6.64-41.23-.38-1.6-2.07-3.37-1.69-1.77,3.15,13.36,5,26.92,7,40.5,2.1,14.27,4.49,28,3.5,42.42-.11,1.64,1,2.63,1.15,1C328.89,227.13,326.59,213.23,324.64,199.81Z"/><path class="cls-3" d="M357.23,145.89a154,154,0,0,0-6.78-21.53c-.59-1.53-2.83-3.33-2.1-1.86,3.71,7.52,5.12,16.15,7.67,24.06a103.78,103.78,0,0,1,5.26,23.74c.15,1.62,2.71,1.63,2.56,0C363,161.42,359.33,154.54,357.23,145.89Z"/></g><g id="Objects"><g id="Torpedo"><polygon class="cls-4" points="52.04 286.06 351.23 383.28 383.21 407.25 400.82 399.86 424.5 410.08 417.09 430.15 408.25 454.14 384.01 446.8 375.69 429.31 336.92 427.32 37.73 330.11 52.04 286.06"/><text class="cls-5" transform="matrix(1.15, 0.38, -0.31, 0.95, 136.48, 436.84)">ヅ<tspan class="cls-6" x="61.33" y="0">ケ</tspan></text><polyline class="cls-7" points="383.21 407.25 417.09 430.15 375.69 429.31"/><path class="cls-8" d="M52.55,286.23C31.94,279.53,12,284,8.08,296.13s9.55,27.45,30.16,34.14Z"/></g><path class="cls-9" d="M66.28,348.56c-.76-2.81,10.06-31.57,33.77-23.89,23.87,7.73,10.9,37.13,8,38.82-1.78,1.33-13.79.8-21.67-1.7C77.77,359.05,65.46,350.85,66.28,348.56Z"/><path class="cls-9" d="M350.2,374.18c.67,1.66-7.61,34.51-29.41,26.64s-11.73-38.07-10.53-38.28c1.16-1.05,13.6-1.75,21.33.86C339.69,366.13,351.11,373.07,350.2,374.18Z"/></g><g id="Face"><path class="cls-9" d="M133.82,307V327.3s0,4.76,5,10.84c6.63,8,22.05,18.2,57.79,23,8.79,1.19,42.65,1,53.15,0,0,0,66.38-6.62,92.1-47.47,23.26,2.84,39.38-18.34,39.34-37.82,0-15.89.76-21.94-10.59-21.94s-12.82,5-12.82,5-8.08,32.2-11.49,32.2c-2.27,0-10.49.85-10.49.85l-7.66,13.62H320.2s7.38-18.72,7.38-51.63c0-9.37-.28-12.49-.28-12.49L311.13,228.1S287.3,202.57,276,182.43s-21-45.11-23.55-70.93l.8,9.66s-19.64,69.07-19.81,110.06l-.84,58.91-51.29.1-6-21.19,2.52,23.73-20.21,3.49L152,282l.45,15.56-24.61.3A16.42,16.42,0,0,1,133.82,307Z"/><path class="cls-10" d="M271.12,249.14c-.25,0-8.62,2.66-10,4.11A4.69,4.69,0,0,0,260,255a5.47,5.47,0,0,0-.05,2.35c1.1,8.29,5.16,17.1,13,20a17,17,0,0,0,16.83-3.47,21.14,21.14,0,0,0,6.71-16.16c-.07-3.42-1-7-3.45-9.41a15.67,15.67,0,0,0-5.77-3.24,23.45,23.45,0,0,0-8.72-1.69,11.17,11.17,0,0,0-8,3.42l-.85,1.07-.83,1.92"/><path class="cls-3" d="M270.72,247.7c-3.07.66-7.8,2.05-10.24,4.16-3.67,3.17-1.7,8.89-.34,12.8,3.9,11.27,15,19,26.67,13.08,9.72-4.95,16.09-21.8,7.3-30.45-6.84-6.74-22.2-8.24-26.53,1.78-.75,1.75,1.83,3.28,2.59,1.51,3.74-8.64,19.12-6.65,23.33.84,5.17,9.2-1.68,22.41-11.37,24.89-10.51,2.69-17.57-6-19.92-15.18-1.23-4.8-.77-6.88,3.75-8.66a35.67,35.67,0,0,1,5.56-1.88c1.89-.41,1.09-3.3-.8-2.89Z"/><path class="cls-3" d="M248.55,314.57c-1-3.13-5.89-1.8-4.92,1.35,2.2,7.15-1.87,12.9-9.36,12.3-3.86-.31-6.78-3.64-10.27-4a6.34,6.34,0,0,0-3.33.88c-2.46,1.1-3.42,2-6.31,2.85-5.48,1.53-15-2.26-11.41-10,1.38-3-3-5.56-4.41-2.58-2.8,6-1.68,12.19,4,16.15a14.82,14.82,0,0,0,9.78,2.37c3.42-.27,8.18-4.22,10.86-4.11,2.37.09,5.88,2.74,8.59,3.21a19.35,19.35,0,0,0,11.1-1.17C250.46,328.46,250.78,321.79,248.55,314.57Z"/><path class="cls-3" d="M309.85,241.9a79,79,0,0,0-45.91-14.84c-3.29,0-3.29,5.08,0,5.11a74.07,74.07,0,0,1,43.33,14.14C310,248.22,312.5,243.79,309.85,241.9Z"/></g><g id="Hair_Tie" data-name="Hair Tie"><g id="Flower"><path class="cls-8" d="M413.92,245.14c-1.29,0-2.58,0-3.87,0,.09,13.09,4.66,25.32,8.12,37.8q4.72,17.1,8.16,34.51a320.24,320.24,0,0,1,5.14,32.43c1,11.19-.19,22.52-.89,33.71,4.12-1.33,8-5.07,10.9-8a.57.57,0,0,1,.16-.11c.19-22.33-5.37-45.5-10-67.27C427.06,286.75,418.35,266.49,413.92,245.14Z"/><path class="cls-8" d="M405.44,244.61A39.27,39.27,0,0,1,399,231.19c1.9,25.9,3.79,51.83,4.16,77.81.32,23.6,1.71,50.14-6.47,72.69,2.34,1.76,4.06,5,7.18,5.08a.5.5,0,0,1,.13,0c5.39-11.74,5-26,5.55-38.74q.77-17.22.41-34.47t-1.85-34.41C407.09,267.72,404.78,256.13,405.44,244.61Z"/><path class="cls-11" d="M411.3,207.05c7,3.95,14.56,9.56,22.47,11.37,1.45-3.81.67-9.43.42-13.39-.33-5.23-1.21-10-5-13.81h0c-7.59.24-15.07,3-22.69,2.64a.6.6,0,0,1-.41-.18.67.67,0,0,1-.63-1c2.24-4.32,5.18-8.15,7-12.71a83,83,0,0,0,4.17-14.76c-4.52-5.26-11.76-7.91-18-10.43a.58.58,0,0,1-.31-.26,16.52,16.52,0,0,0-6.11.1,72.85,72.85,0,0,0,2.23,31.17.56.56,0,0,1-.29.69s.05.08.07.13c.4.71-.7,1.36-1.1.64-5.92-10.58-12.37-20.67-21.55-28.71a.47.47,0,0,1-.13.11c-4.11,2.26-6.38,6.33-8.84,10.16s-5,7.89-7.36,11.88a.59.59,0,0,1-.26.24.62.62,0,0,1-.06.39,5.73,5.73,0,0,0,.12,5.44.56.56,0,0,1,.08.3,25.19,25.19,0,0,0,6.25,4.1,1.3,1.3,0,0,1,2.11,1h0c1.8.78,3.63,1.49,5.43,2.25l15.38,6.52a.91.91,0,0,1,0,1.33c-3.22,1.37-6.34,2.16-9.33,4.1a122,122,0,0,1-11.16,6.41c0,3.43,0,6.86,0,10.28a.6.6,0,0,1,.65.29c3.59,6.11,7.49,16.45,15.7,16.89l.07,0c9.93-2.38,8.47-16,14-22.82a.5.5,0,0,1,.56-.19.63.63,0,0,1,1.18.08c2.23,9.21,3.64,19.72,9.64,27.37a.51.51,0,0,1,.24.17.62.62,0,0,1,.28,0c.79.07,1.59.1,2.38.14a.71.71,0,0,1,.83.05c1.72.08,3.43.1,5.15,0,4.31-2.17,8.6-4.42,11.77-8.18l.09-.07a17.63,17.63,0,0,0-1-8s0,0,0-.07c-1.94-3.52-5.24-5.77-7.57-9-2.66-3.67-4.24-7.86-7.13-11.45a.67.67,0,0,1-.14-.43A.65.65,0,0,1,411.3,207.05Zm-38-15.87c-2.05-1-6.63-3.17-7.68-5.28-1.3-2.65.46-9.78,3-12,1.13-1,5.13-.86,6.41.1a14,14,0,0,1,2.68,3.58c1.3,2,2.43,4,3.85,5.92,3,4,6.12,7.94,9.1,12A40.29,40.29,0,0,1,373.33,191.18Zm18.09,20.48c-.62,1.42-1.33,2.81-2,4.19-2.07,4.05-4.4,9.56-7.65,12.8l-3.24,2c-.41-.45-.81-.91-1.22-1.37a24.09,24.09,0,0,1-3-3.44c-2.37-2.67-5-5-2.19-8.53,0,0,0,0,0-.06,3.85-3.26,8.59-5.68,12.84-8.33,2-1.27,4.34-3.39,6.67-2.19S392.39,209.43,391.42,211.66Zm8.08-49.29c1.48-.34,7.85,6.89,7.34,6,1.9,3.38,1,7.8-.16,11.19-1.54,4.55-3.94,9-6,13.38C399.08,185.27,395.28,163.34,399.5,162.37Zm17.81,68.71c2.67,6.66-2.65,5.54-5.58,2.59a.53.53,0,0,0,.43-.58,60.41,60.41,0,0,0-1-9.41,29.75,29.75,0,0,0-1.47-4.42l.21.29C412.27,223,415.78,227.26,417.31,231.08ZM410,199.51a34.08,34.08,0,0,1,10.83-.66c2.49.27,4.32.7,5.79,2.87.44.65,2.83,5.74,1.4,6.67-1.27.81-8.68-3.32-10-4.13C415.49,202.63,412.54,201.3,410,199.51Z"/><path class="cls-3" d="M408.9,216c-2.17-2.75-4.84-5-7.19-7.58-.55-.61-1.45.3-.9.91.79.87,1.59,1.71,2.4,2.54.69,7.59,1.76,14.56,6.19,20.94,2.2,3.17,4.57,7.42,9,4,4-3.11-.58-7.18-2.49-10.17A125.28,125.28,0,0,0,408.9,216Zm-.63,12.68c-2.49-4.74-3.17-10.08-3.65-15.35.72.75,1.42,1.51,2.12,2.28a.63.63,0,0,0,.06.29A42.66,42.66,0,0,1,410,224a54.33,54.33,0,0,1,.9,8.65A25.17,25.17,0,0,1,408.27,228.66Zm3.46,5a.53.53,0,0,0,.42-.59,59.22,59.22,0,0,0-1-9.41,28.68,28.68,0,0,0-1.48-4.42l.22.29c2.35,3.43,5.86,7.71,7.39,11.53C420,237.75,414.66,236.63,411.73,233.69Z"/></g><g id="X"><path class="cls-8" d="M260.62,148.34c-.94-2.82-1.88-5.4-2.68-8.51,38.56-2.51,90.11,12.48,102.22,16.94.47,2.2.82,5.38,1.06,7.64C361.22,164.41,313.11,147.63,260.62,148.34Z"/><path class="cls-8" d="M350.21,125.26s-62.42,24.44-80.5,45.2l4.3,8.44s49.67-36.62,78.68-46Z"/></g></g><g id="Headband"><path class="cls-4" d="M386.68,127.29s1.71-13.24-6.8-22.31S351.6,85.21,351.6,85.21s-15-24.68-30.73-30.54-38.49-4.92-38.49-4.92l-51.82-5.48S219.68,42,201.34,48.05s-26.86,12.29-26.86,12.29l10.68,14.38s12.11,1.41,19.39.09,22.13-12.48,22.13-12.48l62.6.56s.1,8,13.05,16,31.3,4.44,31.3,4.44l25.44,19.76s-1.89,10.31,4.63,17.4a35.11,35.11,0,0,0,15.23,9.37Z"/><path class="cls-12" d="M390.9,138.52l-.1-.37c-1.38-4.82-2.09-8.34-.86-13.24-2-2.9-5.74-5.77-8.75-7.56-4.49,4.66-6,12.23-1.77,17.63a.62.62,0,0,1,.11.59.67.67,0,0,1-.25,1.09c-2.16.75-3.88,4.9-4.9,6.82a21.24,21.24,0,0,0-2.84,7.64c5.87,3,13.86,5.53,17.69-1.69a.61.61,0,0,1,1.06,0,.49.49,0,0,1,.23.2c2.29,3.32,6.5,4.05,10.05,5.41,2.39.92,4.73,2,7.05,3.07a27.08,27.08,0,0,0-.72-10.29c-.76-2.72-2.7-5.69-4.18-7.93C398.64,140.21,394.53,140.49,390.9,138.52Z"/><path class="cls-13" d="M402.8,121.89c2.38,3.7,6.5,5,10.53,6.08-1.66-6.21-8-11.43-14.09-13.55,1.3,2.11,3.2,4.6,3.45,7.36A.38.38,0,0,1,402.8,121.89Z"/><path class="cls-13" d="M408.62,135.06c.81-.9,1.61-1.82,2.41-2.74a25.54,25.54,0,0,0,2.3-4.35,21.48,21.48,0,0,1-10.53-6.08c0,1.42,0,4.9-.06,6.12-.05.81,0-2.39.09-3.21.25-4-1.1-6.93-3.59-10.38-3.88,2.87-6.88,5.77-9.05,10.23a.53.53,0,0,1-.25.26c-1.06,4.46-.35,8.87.86,13.24,3.41,2,8,2,11.92,1.74a.74.74,0,0,1,.21-.17A19.68,19.68,0,0,0,408.62,135.06Z"/><path class="cls-12" d="M347.16,91.26c-2-5.31-1.71-11.77-1.73-17.37-2-1.68-4.45-3-6.51-4.58-2.76-2.13-8.65-3.91-11.93-2.48-11.71,5.11-1,17,5.05,21.56,0,0,0,0,0,0a.68.68,0,0,1,.5,1.11c-5.48,6.36-5.38,13.39-3.52,21.12,8.22.92,17.85-3.56,22.78-10.26a.64.64,0,0,1,.35-.24.62.62,0,0,1,1.14.16c1.83,8.11,8.68,10.85,16.24,11.56,1.94-3.84,3.23-7.74,1.38-12A28.22,28.22,0,0,0,364,90.78a17.16,17.16,0,0,1-16.61.71"/><path class="cls-13" d="M375.43,71.19a37.51,37.51,0,0,0-3.91-7.07c-2.31-3.2-5.18-3.4-8.86-3.89a.76.76,0,0,1-.16-.06.63.63,0,0,1-.41.06,46.4,46.4,0,0,1,1.18,12C367.07,71,371.42,71,375.43,71.19Z"/><path class="cls-12" d="M380.67,72.23c-1.17-.06-4.07-.93-5.24-1,0,.29.39,0,0,0-4.24-.28-7.9-.28-12,1-.09,0,0,1,0,1-.11,3.06-.57,6.42-.9,9.51h0c.85-8,1.86-14.7-.43-22.51A18.47,18.47,0,0,0,361,58a11.67,11.67,0,0,1-1.61-3.32c-3.7,2.12-6.18,6.17-8.48,9.65a87.79,87.79,0,0,0-5.46,9.57c.07,5.79-.35,11.86,1.73,17.37,0,0,0,.07,0,.11,4.6,2.47,12.38,2.5,16.75-.48l0,0s0-.06,0-.09C369.53,84.61,378.53,80.82,380.67,72.23Z"/><path class="cls-12" d="M242.23,43.81a.59.59,0,0,1,.11.24C244.2,51.73,247.81,66,258,66.17a.5.5,0,0,1,.13,0c8.72-5.48,11.32-15.28,12-25a.5.5,0,0,1-.17-.32,104.7,104.7,0,0,1-1-13.35c-.7,0-2.85-.45-3.39-.21-.11.05-.09.11-.19.1A26.63,26.63,0,0,0,256,34.76a84.39,84.39,0,0,1,6,8.54l-.51-.86a41.41,41.41,0,0,0-4.06-5.91,2.57,2.57,0,0,1-.52-.66c-.64-.81-4.88-6.11-5.42-7-1.54-2.54-.32-.39-2.53-3.49a31.35,31.35,0,0,0-5.77-2.11c-1.45,6.43-1.41,14-.95,20.44A.2.2,0,0,1,242.23,43.81Z"/><path class="cls-12" d="M256.09,34.88a31.68,31.68,0,0,1,9.42-7.57c-3.27-5.64-11.21-4.84-16.27-2.17a.28.28,0,0,1-.12,0,1,1,0,0,1-.16.19c2.16,2.77,3.95,5.81,6.27,8.47C255.53,34.18,255.8,34.53,256.09,34.88Z"/><path class="cls-14" d="M270.65,65.68c8.43,1,20.48.82,27.38-4.42a5.5,5.5,0,0,1-3.89-3.61.53.53,0,0,1,.06-.5.71.71,0,0,1,.06-.31,2.79,2.79,0,0,1,2-1.47c1.19-.32,2.42-.54,3.63-.78-8.06-7.22-19.49-10.74-29.83-13.4-.74,10.23-2.64,19.32-11.9,25-.27.17-.21.22-.39.06-10.32-.39-13.51-14-15.58-22.39-7.62.21-15.95,3.3-22.44,7.37a13.87,13.87,0,0,1,3.43,3.53h0a.6.6,0,0,1,.15.77c-1.54,2.81-4.48,3.86-7.42,4.57,7.25,6.31,19.26,12.68,28.09,6a.68.68,0,0,1,1.19.36,20,20,0,0,0,14.33,16.65.58.58,0,0,1,.31.2c6.53-3.14,10.59-10.42,10.78-17.58"/><path class="cls-12" d="M151.51,76.23c3.87,4,11.78,8.39,15.92,2.2a.68.68,0,0,1,.12-.12.53.53,0,0,1,0-.12c1.3-3,2.15-5.09,2.22-8.36l.12-6.47a.52.52,0,0,1-.2-.34c-.41-2.76-2.1-5-3.58-7.3a21.5,21.5,0,0,0-6-6c-.15,3.64-2.39,6.26-4.85,8.83a63.76,63.76,0,0,1,4.53,5.31c.49.66-.23-.3-.71-1-3.08-4.17-7.52-8.11-11.76-8-.15,0-.74.84-.89,1s-.12.09-.26.22-.65.41-.7.43C145,63,146.22,71.35,151.07,76A.58.58,0,0,1,151.51,76.23Z"/><path class="cls-13" d="M160.09,49.71c-1.19,0-2.36-.33-3.54-.29a8.93,8.93,0,0,0-4.36,1.6,34.44,34.44,0,0,0-4.89,3.88,12.31,12.31,0,0,1,7.94,3.64C157.59,56.09,160.16,53.24,160.09,49.71Z"/><path class="cls-14" d="M167.43,78.43c-4.49,6.72-11.72,2.14-16.36-2.39-2.86.67-6,3.06-8.31,5-1.75,1.5-4.48,3.46-5.91,5.29l-.93.79-.15.15-.11.1a15.63,15.63,0,0,0-2.84,3.77,29,29,0,0,0-1.82,4.7c4.33,1.32,9,2.57,13.57,1.67a28.61,28.61,0,0,0,10.79-4.22.69.69,0,0,1,1.23.09c1.16,2.95,5.15,5.68,7.86,7.08a19.13,19.13,0,0,0,10.6,1.89c3.52-6.5.59-14-.27-20.86,0,0,0,0,0,0a.56.56,0,0,1,.15-.91c7.16-3.4,16.08-9,16.46-17.71a13,13,0,0,1-6.93,1.34h0a.64.64,0,0,1-.78-.77c.6-2.32,1.28-4.6,2-6.87-5.78-1.12-11.71,3.13-15.76,6.84,0,3,0,5-.22,8-.16,2.46-1.29,4.84-2.27,7.07"/><path class="cls-12" d="M135.84,87.08s0,0,0,0c-4.69-2.6-10.24-5-15.52-3.39l-.42.13-.39.25c-3.07,2.5-2.72,8.17-2.1,11.64a22.79,22.79,0,0,0,4.4,9.73,49.15,49.15,0,0,1,4.14-3.16c2-1.53,3.3-3.58,4.7-5.67a.38.38,0,0,1,.11-.11,41.59,41.59,0,0,1,2.31-5.85A15.27,15.27,0,0,1,135.84,87.08Z"/></g></g></g></svg>